<svg xmlns="http://www.w3.org/2000/svg" width="22.181" height="19.689" viewBox="0 0 22.181 19.689"><defs><style>.a{fill:#f1f3f6;}</style></defs><path class="a" d="M21.889,17.517a1.12,1.12,0,0,0-.827-.365H1.119A1.119,1.119,0,0,0,0,18.375L1.069,29.8A1.119,1.119,0,0,0,2.183,30.82H20A1.119,1.119,0,0,0,21.112,29.8l1.064-11.429A1.119,1.119,0,0,0,21.889,17.517Zm-1.862-2.45a.84.84,0,0,1-.84.84H2.993a.84.84,0,0,1,0-1.679H19.188A.84.84,0,0,1,20.027,15.068Zm-2.216-3.1a.84.84,0,0,1-.84.84H5.21a.84.84,0,1,1,0-1.679H16.971A.84.84,0,0,1,17.811,11.971Z" transform="translate(0 -11.131)"/></svg>